<svg width="288" height="72" viewBox="0 0 288 72" fill="none" xmlns="http://www.w3.org/2000/svg">
<g clip-path="url(#clip0_3509_874)">
<path d="M288 0H0V72H288V0Z" fill="#00AAC4"/>
<g clip-path="url(#clip1_3509_874)">
<path d="M78.9321 48.6671C77.3448 45.1604 76.5511 40.8488 76.5511 35.7324C76.5401 33.0401 76.9052 30.3593 77.6358 27.7667C78.2541 25.4006 79.4607 23.2267 81.145 21.4449C81.9335 20.6235 82.8872 19.9762 83.9441 19.5454C85.001 19.1145 86.1374 18.9097 87.2792 18.9442C89.1054 18.9175 90.8811 19.5406 92.2853 20.7011C93.7572 21.9218 94.8952 23.492 95.5938 25.266C96.3615 27.1304 96.754 29.1262 96.7491 31.1405L90.3219 31.4316C90.291 29.8734 90.0632 28.3253 89.644 26.8236C89.1884 25.0989 88.2826 24.2312 86.9321 24.2312C85.5816 24.2312 84.5294 25.3576 83.987 27.6104C83.4026 30.2649 83.1296 32.9777 83.1735 35.6946C83.1735 39.5894 83.4754 42.7171 84.0792 45.0777C84.6831 47.4383 85.8455 48.615 87.5667 48.6078C88.7707 48.6078 89.6331 47.8964 90.1429 46.452C90.7082 44.7724 91.0439 43.025 91.1409 41.2566L96.8033 41.7955C96.825 43.8486 96.4569 45.8872 95.7185 47.8048C95.0686 49.553 93.9418 51.087 92.4643 52.2349C90.9387 53.3702 89.0704 53.9573 87.1653 53.9003C83.2638 53.9218 80.5194 52.1775 78.9321 48.6671Z" fill="#00080A"/>
<path d="M98.9296 53.3071L106.089 19.9408L115.553 19.5366L122.864 53.0322L115.618 53.3071L114.398 46.0582H106.262L104.814 53.3071H98.9296ZM107.537 40.658H113.194L110.07 24.4895L107.537 40.658Z" fill="#00080A"/>
<path d="M135.751 38.4972H133.17V53.0488L126.558 53.5877V19.8227L134.618 19.5532C138.512 19.5532 141.562 20.3257 143.767 21.8707C145.973 23.4157 147.074 25.7781 147.071 28.9579C147.147 30.7642 146.715 32.5558 145.823 34.1317C144.932 35.5427 143.695 36.7055 142.227 37.5109L145.259 44.846L148.687 52.9302L141.696 53.5554L135.751 38.4972ZM135.431 33.6467C136.735 33.7204 138.028 33.3807 139.125 32.6766C140.014 32.0299 140.459 30.8118 140.459 29.0118C140.459 26.22 139.071 24.8241 136.294 24.8241H133.17V33.6413L135.431 33.6467Z" fill="#00080A"/>
<path d="M167.995 53.577L158.075 32.4718V53.0326L152.153 53.3075V19.8227L159.084 19.5532L167.881 39.6236V20.0922L173.495 19.5532V53.0326L167.995 53.577Z" fill="#00080A"/>
<path d="M177.189 53.3071L184.342 19.9408L193.807 19.5366L201.145 53.0322L193.915 53.3071L192.69 46.0582H184.57L183.122 53.3071H177.189ZM185.78 40.658H191.442L188.318 24.4895L185.78 40.658Z" fill="#00080A"/>
<path d="M210.018 53.3075L202.002 19.8227L209.883 19.5532L214.368 42.8627L219.076 19.8227L225.465 19.5532L217.33 53.3075H210.018Z" fill="#00080A"/>
<path d="M226.322 53.3071L233.508 19.9408L242.973 19.5366L250.279 53.0322L243.033 53.3071L241.812 46.0582H233.704L232.256 53.3071H226.322ZM234.929 40.658H240.592L237.462 24.4895L234.929 40.658Z" fill="#00080A"/>
<path d="M253.951 53.3075V20.0922L260.562 19.5532V48.042H271.702L271.024 53.3075H253.951Z" fill="#00080A"/>
<path d="M71.339 4.85059H16.9444V67.9074H71.339V4.85059Z" fill="#00AAC4"/>
<path d="M62.2759 13.8562C62.2759 13.8562 53.2075 9.35596 44.1444 9.35596C35.0814 9.35596 26.0129 13.8562 26.0129 13.8562L21.4786 49.8902C21.4786 49.8902 39.6102 63.4016 44.1444 63.4016C48.6786 63.4016 66.8047 49.8902 66.8047 49.8902L62.2759 13.8562ZM35.0759 36.3788C34.175 36.382 33.2934 36.1194 32.5428 35.6242C31.7922 35.1291 31.2065 34.4237 30.8597 33.5974C30.5129 32.7711 30.4208 31.8612 30.595 30.9828C30.7692 30.1045 31.2018 29.2973 31.8381 28.6635C32.4744 28.0297 33.2857 27.5979 34.1692 27.4227C35.0527 27.2475 35.9687 27.3369 36.801 27.6795C37.6334 28.0221 38.3447 28.6024 38.8448 29.3471C39.3448 30.0918 39.6112 30.9672 39.6102 31.8624C39.6116 32.455 39.4954 33.042 39.2681 33.5899C39.0409 34.1378 38.7071 34.6358 38.286 35.0553C37.8648 35.4748 37.3644 35.8077 36.8136 36.0348C36.2628 36.2619 35.6723 36.3788 35.0759 36.3788V36.3788ZM53.2075 36.3788C52.3065 36.382 51.4249 36.1194 50.6743 35.6242C49.9238 35.1291 49.338 34.4237 48.9912 33.5974C48.6445 32.7711 48.5524 31.8612 48.7265 30.9828C48.9007 30.1045 49.3334 29.2973 49.9696 28.6635C50.6059 28.0297 51.4172 27.5979 52.3007 27.4227C53.1843 27.2475 54.1002 27.3369 54.9326 27.6795C55.7649 28.0221 56.4762 28.6024 56.9763 29.3471C57.4764 30.0918 57.7428 30.9672 57.7417 31.8624C57.7424 32.4548 57.6257 33.0415 57.3982 33.5891C57.1707 34.1367 56.8369 34.6343 56.4159 35.0537C55.9948 35.4731 55.4948 35.806 54.9443 36.0333C54.3938 36.2607 53.8036 36.3781 53.2075 36.3788" fill="white"/>
<path d="M66.8047 49.8903L62.2759 13.8562C59.4077 12.505 56.4189 11.4225 53.3485 10.6226C54.6865 11.4213 55.7941 12.5501 56.5638 13.8995C57.3336 15.2489 57.7393 16.773 57.7417 18.3241V18.3241C57.736 19.5158 57.2559 20.6569 56.4063 21.498C55.5568 22.3392 54.4067 22.8121 53.2074 22.8136C50.8363 22.8145 48.56 23.7387 46.8667 25.3881C45.1734 27.0374 44.1981 29.2805 44.1498 31.6361C44.1498 31.7116 44.1498 31.7924 44.1498 31.8733C44.1405 36.3675 45.8304 40.7012 48.8847 44.0157C49.1734 43.0977 49.7504 42.2956 50.5313 41.7273C51.3122 41.1589 52.2558 40.8541 53.2237 40.8575C53.3098 40.8555 53.3958 40.8664 53.4786 40.8898C54.9892 40.9294 56.4658 41.3442 57.7738 42.0962C59.0817 42.8483 60.1794 43.9137 60.9667 45.1954C61.7539 46.4771 62.2058 47.9343 62.281 49.434C62.3562 50.9338 62.0524 52.4283 61.3973 53.7815C64.543 51.588 66.821 49.8903 66.821 49.8903H66.8047ZM53.2074 36.3789C52.3065 36.3821 51.4249 36.1194 50.6743 35.6243C49.9238 35.1292 49.338 34.4238 48.9912 33.5975C48.6445 32.7712 48.5523 31.8612 48.7265 30.9829C48.9007 30.1046 49.3333 29.2973 49.9696 28.6636C50.6059 28.0298 51.4172 27.5979 52.3007 27.4228C53.1843 27.2476 54.1002 27.3369 54.9326 27.6795C55.7649 28.0221 56.4762 28.6025 56.9763 29.3472C57.4764 30.0918 57.7427 30.9672 57.7417 31.8625C57.7424 32.4549 57.6257 33.0416 57.3982 33.5892C57.1707 34.1367 56.8369 34.6344 56.4159 35.0538C55.9948 35.4732 55.4948 35.8061 54.9443 36.0334C54.3938 36.2608 53.8036 36.3781 53.2074 36.3789" fill="#00080A"/>
<path d="M30.5471 31.8623C30.5261 31.2579 30.6277 30.6554 30.846 30.0909C31.0642 29.5263 31.3946 29.0111 31.8175 28.5762C32.2404 28.1412 32.747 27.7952 33.3073 27.559C33.8676 27.3227 34.47 27.2009 35.0786 27.2009C35.6873 27.2009 36.2897 27.3227 36.85 27.559C37.4103 27.7952 37.9169 28.1412 38.3398 28.5762C38.7627 29.0111 39.0931 29.5263 39.3113 30.0909C39.5296 30.6554 39.6312 31.2579 39.6102 31.8623C39.6126 30.8643 39.9475 29.8953 40.5628 29.1064C41.178 28.3176 42.0389 27.7535 43.0108 27.5022C42.0363 25.7572 40.5064 24.3829 38.6611 23.5951C36.8158 22.8073 34.7594 22.6505 32.8147 23.1493C30.87 23.6481 29.147 24.7743 27.916 26.3513C26.685 27.9282 26.0156 29.8666 26.0129 31.8623C26.017 32.627 26.1209 33.3878 26.322 34.1259C29 35.6036 32.0127 36.379 35.0759 36.3787C34.48 36.378 33.8901 36.2606 33.3399 36.0332C32.7897 35.8057 32.29 35.4728 31.8694 35.0533C31.4488 34.6339 31.1155 34.1362 30.8886 33.5886C30.6617 33.0411 30.5457 32.4545 30.5471 31.8623" fill="#00080A"/>
</g>
</g>
<defs>
<clipPath id="clip0_3509_874">
<rect width="288" height="72" fill="white"/>
</clipPath>
<clipPath id="clip1_3509_874">
<rect width="256" height="64" fill="white" transform="translate(16 4)"/>
</clipPath>
</defs>
</svg>
