<svg width="24" height="24" viewBox="0 0 24 24" fill="none" xmlns="http://www.w3.org/2000/svg">
<path fill-rule="evenodd" clip-rule="evenodd" d="M12 24C18.6274 24 24 18.6274 24 12C24 5.37258 18.6274 0 12 0C5.37258 0 0 5.37258 0 12C0 18.6274 5.37258 24 12 24ZM15.2287 5.68759C16.7968 6.19507 18.1334 7.60154 18.1357 9.31763C18.1385 11.2944 16.8497 12.7868 14.9588 13.2548C13.8586 13.5271 12.9648 13.79 12.2707 14.721C11.9784 15.1129 11.7456 15.6312 11.5061 16.1643C10.9459 17.411 10.3495 18.7385 8.87246 18.7198C6.03463 18.6839 5.84398 13.6528 5.86563 11.7426C5.89202 9.41918 6.59998 7.08958 8.85367 6.02608C10.7131 5.14874 13.2814 5.0574 15.2287 5.68759Z" fill="#F2F2F2"/>
</svg>
