<svg width="32" height="32" viewBox="0 0 32 32" fill="none" xmlns="http://www.w3.org/2000/svg">
<path d="M18.2267 25.4405C26.3945 23.6773 32.0672 17.7932 30.8969 12.298C29.7267 6.80276 22.1567 3.77734 13.9889 5.54053C5.82113 7.30372 0.148512 13.1878 1.31877 18.683C2.48904 24.1783 10.059 27.2037 18.2267 25.4405Z" fill="#F5D265"/>
<path d="M30.2741 13.8947C31.2587 13.7438 31.9389 12.8304 31.7933 11.8548C31.6476 10.8792 30.7314 10.2106 29.7468 10.3616C28.7622 10.5125 28.0821 11.4258 28.2277 12.4014C28.3732 13.3771 29.2895 14.0457 30.2741 13.8947ZM2.29209 20.9498C3.27172 20.7687 3.88701 19.6386 3.66639 18.4255C3.44579 17.2125 2.47281 16.3759 1.49318 16.5571C0.51355 16.7381 -0.101756 17.8682 0.11885 19.0813C0.339456 20.2943 1.31244 21.1309 2.29209 20.9498Z" fill="#F5D265"/>
</svg>
