<svg width="24" height="24" viewBox="0 0 24 24" fill="none" xmlns="http://www.w3.org/2000/svg">
<g clip-path="url(#clip0_3509_400)">
<path d="M12 23.9401C18.5943 23.9401 23.94 18.5943 23.94 12.0001C23.94 5.40578 18.5943 0.0600586 12 0.0600586C5.40572 0.0600586 0.0599976 5.40578 0.0599976 12.0001C0.0599976 18.5943 5.40572 23.9401 12 23.9401Z" fill="url(#paint0_linear_3509_400)"/>
<path fill-rule="evenodd" clip-rule="evenodd" d="M12 0.12C5.43886 0.12 0.12 5.43886 0.12 12C0.12 18.5611 5.43886 23.88 12 23.88C18.5611 23.88 23.88 18.5611 23.88 12C23.88 5.43886 18.5611 0.12 12 0.12ZM0 12C0 5.37258 5.37258 0 12 0C18.6274 0 24 5.37258 24 12C24 18.6274 18.6274 24 12 24C5.37258 24 0 18.6274 0 12Z" fill="#27272A"/>
<path d="M15.7853 9.66428L17.8121 6.93733C14.5931 4.38306 9.67635 4.5431 6.84588 7.7314C5.90782 8.78808 5.30471 10.1666 5.23509 11.8388C5.13822 14.1653 6.18324 16.3199 7.81233 17.4764C10.8938 19.6639 15.0425 19.136 17.9996 17.0623L16.1879 14.1744C14.0133 15.8657 10.0208 15.7045 9.7449 12.3219C9.46899 8.93947 13.208 7.97301 15.7853 9.66428Z" fill="#FAFAFA"/>
</g>
<defs>
<linearGradient id="paint0_linear_3509_400" x1="16.8" y1="20.8801" x2="4.8" y2="2.16006" gradientUnits="userSpaceOnUse">
<stop stop-color="#111111"/>
<stop offset="1" stop-color="#222224"/>
</linearGradient>
<clipPath id="clip0_3509_400">
<rect width="24" height="24" fill="white"/>
</clipPath>
</defs>
</svg>
