<svg width="24" height="24" viewBox="0 0 24 24" fill="none" xmlns="http://www.w3.org/2000/svg">
<g clip-path="url(#clip0_3524_424)">
<path fill-rule="evenodd" clip-rule="evenodd" d="M23.94 12.0001C23.94 18.5943 18.5943 23.9401 12 23.9401C5.40572 23.9401 0.0599976 18.5943 0.0599976 12.0001C0.0599976 5.40578 5.40572 0.0600586 12 0.0600586C18.5943 0.0600586 23.94 5.40578 23.94 12.0001ZM17.8121 6.93733L15.7853 9.66428C13.208 7.97301 9.46899 8.93947 9.7449 12.3219C10.0208 15.7045 14.0133 15.8657 16.1879 14.1744L17.9996 17.0623C15.0425 19.136 10.8938 19.6639 7.81233 17.4764C6.18324 16.3199 5.13822 14.1653 5.23509 11.8388C5.30471 10.1666 5.90782 8.78808 6.84588 7.7314C9.67635 4.5431 14.5931 4.38306 17.8121 6.93733Z" fill="#F2F2F2"/>
</g>
<defs>
<clipPath id="clip0_3524_424">
<rect width="24" height="24" fill="white"/>
</clipPath>
</defs>
</svg>
